<svg xmlns="http://www.w3.org/2000/svg" width="26" height="25" viewBox="0 0 26 25" fill="none"><path d="M25.2488 19.0406C25.7194 19.6328 26 20.3827 26 21.1991C26 23.1183 24.4482 24.67 22.5291 24.67C21.2263 24.67 20.0932 23.955 19.4997 22.8953C19.4876 22.8447 19.4629 22.799 19.4287 22.7617C19.1912 22.2923 19.0582 21.7616 19.0582 21.1991C19.0582 19.28 20.6227 17.7283 22.5291 17.7283C23.6071 17.7283 24.5698 18.2179 25.2064 18.988C25.2178 19.007 25.2324 19.0248 25.2488 19.0406ZM24.6256 20.1034C24.7459 19.9831 24.7459 19.7867 24.6256 19.6664C24.5052 19.546 24.3089 19.546 24.1886 19.6664L21.7944 22.0605L20.8697 21.1421C20.7493 21.0218 20.553 21.0218 20.4326 21.1421C20.3123 21.2625 20.3123 21.4588 20.4326 21.5792L21.5791 22.7192C21.6361 22.7762 21.7184 22.8079 21.7944 22.8079C21.8767 22.8079 21.9527 22.7762 22.0224 22.7192L24.6256 20.1034ZM25.1576 2.45761V5.16212H0V2.44494C0 2.15359 0.234348 1.91291 0.532034 1.91291H3.46456V2.71096C3.46456 3.34434 3.97759 3.85737 4.61096 3.85737C5.238 3.85737 5.75103 3.338 5.75737 2.69829V1.92558H8.77223V2.71096C8.77223 3.34434 9.28526 3.85737 9.91864 3.85737C10.552 3.85737 11.065 3.338 11.065 2.69829V1.92558H14.0862V2.71096C14.0862 3.34434 14.5993 3.85737 15.2326 3.85737C15.8597 3.85737 16.3727 3.338 16.3791 2.69829V1.92558H19.3939V2.71096C19.3939 3.34434 19.9069 3.85737 20.5403 3.85737C21.1674 3.85737 21.6804 3.338 21.6867 2.69829V1.92558H24.6256C24.9169 1.92558 25.1576 2.15993 25.1576 2.45761ZM19.7549 13.1806H21.8514V15.2771H19.7549V13.1806ZM19.7549 8.04397H21.8514V10.1404H19.7549V8.04397Z" fill="#63AB45"></path><path d="M21.067 1.62144V2.69817C21.067 2.98952 20.8326 3.23021 20.5413 3.23021C20.2499 3.23021 20.0156 2.99586 20.0156 2.70451V0.5257C20.0156 0.234349 20.2499 0 20.5413 0C20.8263 0 21.0606 0.234348 21.067 0.532034V1.62144ZM14.2709 18.3045H16.3673V20.401H14.2709V18.3045ZM14.2709 13.1805H16.3673V15.277H14.2709V13.1805ZM14.2709 8.04385H16.3673V10.1403H14.2709V8.04385ZM15.7593 1.62144V2.69184C15.7593 2.98952 15.525 3.23021 15.2336 3.23021C14.9423 3.23021 14.7079 2.99586 14.7079 2.70451V0.5257C14.7079 0.234349 14.9423 0 15.2336 0C15.5186 0 15.7593 0.234348 15.7593 0.532034V1.62144ZM8.77953 18.3045H10.876V20.401H8.77953V18.3045ZM8.77953 13.1805H10.876V15.277H8.77953V13.1805ZM8.77953 8.04385H10.876V10.1403H8.77953V8.04385ZM10.4453 1.62144V2.69817C10.4453 2.98952 10.211 3.23021 9.9196 3.23021C9.62825 3.23021 9.3939 2.99586 9.3939 2.70451V0.5257C9.3939 0.234349 9.62825 0 9.9196 0C10.211 0 10.4453 0.234348 10.4453 0.532034V1.62144ZM3.30084 18.3045H5.39731V20.401H3.30084V18.3045ZM3.30084 13.1805H5.39731V15.277H3.30084V13.1805ZM3.30084 8.04385H5.39731V10.1403H3.30084V8.04385ZM5.13763 1.62144V2.69184C5.13763 2.98952 4.90328 3.23021 4.61193 3.23021C4.32057 3.23021 4.08623 2.99586 4.08623 2.70451V0.5257C4.08623 0.234349 4.32057 0 4.61193 0C4.90328 0 5.14396 0.234349 5.13763 0.5257V1.62144Z" fill="#63AB45"></path><path d="M25.1576 5.7701V18.0664C24.447 17.4679 23.5298 17.1075 22.5291 17.1075C20.2743 17.1075 18.4438 18.9379 18.4438 21.1927C18.4438 21.7108 18.5401 22.2061 18.7168 22.6622H0.532034C0.240682 22.6622 0 22.4278 0 22.1301V5.7701H25.1576ZM22.1554 10.7611C22.3328 10.7611 22.4721 10.6217 22.4594 10.4571V7.73989C22.4594 7.57521 22.3264 7.43587 22.1554 7.43587H19.4382C19.2736 7.43587 19.1342 7.56888 19.1342 7.73989V10.4571C19.1342 10.6217 19.2672 10.7611 19.4382 10.7611H22.1554ZM22.1554 15.8914C22.3328 15.8914 22.4721 15.7584 22.4594 15.5874V12.8702C22.4594 12.7055 22.3264 12.5662 22.1554 12.5662H19.4382C19.2736 12.5662 19.1342 12.6992 19.1342 12.8702V15.5874C19.1342 15.7521 19.2672 15.8914 19.4382 15.8914H22.1554ZM16.6767 21.0217C16.8477 21.0217 16.9871 20.8824 16.9808 20.7177V18.0005C16.9808 17.8359 16.8477 17.6965 16.6767 17.6965H13.9596C13.7949 17.6965 13.6555 17.8295 13.6555 18.0005V20.7177C13.6555 20.8824 13.7886 21.0217 13.9596 21.0217H16.6767ZM16.6767 15.8914C16.8477 15.8914 16.9871 15.7584 16.9808 15.5874V12.8702C16.9808 12.7055 16.8477 12.5662 16.6767 12.5662H13.9596C13.7949 12.5662 13.6555 12.6992 13.6555 12.8702V15.5874C13.6555 15.7521 13.7886 15.8914 13.9596 15.8914H16.6767ZM16.6767 10.7611C16.8477 10.7611 16.9871 10.6217 16.9808 10.4571V7.73989C16.9808 7.57521 16.8477 7.43587 16.6767 7.43587H13.9596C13.7949 7.43587 13.6555 7.56888 13.6555 7.73989V10.4571C13.6555 10.6217 13.7886 10.7611 13.9596 10.7611H16.6767ZM11.4957 20.7177V18.0005C11.4957 17.8359 11.3627 17.6965 11.1917 17.6965H8.47454C8.30987 17.6965 8.17052 17.8295 8.17052 18.0005V20.7177C8.17052 20.8824 8.30353 21.0217 8.47454 21.0217H11.1917C11.3564 21.0217 11.4957 20.8824 11.4957 20.7177ZM11.4957 15.5874V12.8702C11.4957 12.7055 11.3627 12.5662 11.1917 12.5662H8.47454C8.30987 12.5662 8.17052 12.6992 8.17052 12.8702V15.5874C8.17052 15.7521 8.30353 15.8914 8.47454 15.8914H11.1917C11.3564 15.8914 11.4957 15.7584 11.4957 15.5874ZM11.4957 10.4571V7.73989C11.4957 7.57521 11.3627 7.43587 11.1917 7.43587H8.47454C8.30987 7.43587 8.17052 7.56888 8.17052 7.73989V10.4571C8.17052 10.6217 8.30353 10.7611 8.47454 10.7611H11.1917C11.3564 10.7611 11.4957 10.6217 11.4957 10.4571ZM6.01705 20.7177V18.0005C6.01705 17.8359 5.88404 17.6965 5.71303 17.6965H2.99586C2.83118 17.6965 2.69184 17.8295 2.69184 18.0005V20.7177C2.69184 20.8824 2.82485 21.0217 2.99586 21.0217H5.7067C5.87771 21.0217 6.01705 20.8824 6.01705 20.7177ZM6.01705 15.5874V12.8702C6.01705 12.7055 5.88404 12.5662 5.71303 12.5662H2.99586C2.83118 12.5662 2.69184 12.6992 2.69184 12.8702V15.5874C2.69184 15.7521 2.82485 15.8914 2.99586 15.8914H5.7067C5.87771 15.8914 6.01705 15.7584 6.01705 15.5874ZM6.01705 10.4571V7.73989C6.01705 7.57521 5.88404 7.43587 5.71303 7.43587H2.99586C2.83118 7.43587 2.69184 7.56888 2.69184 7.73989V10.4571C2.69184 10.6217 2.82485 10.7611 2.99586 10.7611H5.7067C5.87771 10.7611 6.01705 10.6217 6.01705 10.4571Z" fill="#63AB45"></path></svg>