<svg xmlns="http://www.w3.org/2000/svg" width="74" height="51" fill="#e2e0e0" viewBox="0 0 74 51">
    <g>
        <path d="M38.7831 34.2125C38.8172 34.5611 38.8853 34.9183 38.9704 35.267C39.7281 44.0775 47.1264 51 56.1422 51C65.6688 51 73.3906 43.2866 73.3906 33.7702C73.3906 24.526 66.103 17.0082 56.9595 16.583C59.1645 13.1047 62.7146 10.2898 67.048 8.96309L67.1928 8.92057C69.202 8.30826 70.5897 6.35226 70.4024 4.17515C70.1895 1.66637 67.9845 -0.196075 65.4645 0.0165336C58.0492 0.645856 50.6339 4.43028 45.5939 10.5789C43.0654 13.6405 41.1073 17.2463 39.9154 21.1753C38.715 25.0958 38.3063 29.331 38.715 33.5066L38.7831 34.2125Z"></path>
        <path d="M0.222559 34.2125C0.256613 34.5611 0.324725 34.9183 0.409857 35.267C1.16756 44.0775 8.56582 51 17.5817 51C27.1083 51 34.8301 43.2866 34.8301 33.7702C34.8301 24.526 27.5425 17.0082 18.399 16.583C20.604 13.1047 24.1541 10.2898 28.4875 8.96309L28.6322 8.92057C30.6414 8.30826 32.0291 6.35226 31.8418 4.17515C31.629 1.66637 29.424 -0.196075 26.904 0.0165336C19.4887 0.645856 12.0734 4.43028 7.03338 10.5789C4.50486 13.6405 2.54675 17.2463 1.35486 21.1753C0.154451 25.0958 -0.254202 29.331 0.154448 33.5066L0.222559 34.2125Z"></path>
    </g>
</svg>